<mxfile host="app.diagrams.net" modified="2023-10-16T18:08:20.466Z" agent="Mozilla/5.0 (Macintosh; Intel Mac OS X 10_15_7) AppleWebKit/537.36 (KHTML, like Gecko) Chrome/118.0.0.0 Safari/537.36" version="22.0.4" etag="A_bMzmlLgkJtnlLdeo5V" type="github">
  <diagram name="Seite-1" id="xdCWp8UWP89d_0fZDYaU">
    <mxGraphModel>
      <root>
        <mxCell id="0" />
        <mxCell id="1" parent="0" />
      </root>
    </mxGraphModel>
  </diagram>
</mxfile>
